<?xml version="1.0" encoding="utf-8"?>
<!-- Generator: Adobe Illustrator 24.0.0, SVG Export Plug-In . SVG Version: 6.00 Build 0)  -->
<svg version="1.1" id="Layer_1" xmlns="http://www.w3.org/2000/svg" xmlns:xlink="http://www.w3.org/1999/xlink" x="0px" y="0px"
	 viewBox="0 0 48 48" style="enable-background:new 0 0 48 48;" xml:space="preserve">
<g>
	<path d="M6.81,11.29c-0.41,0.5-0.76,1.05-1.23,1.49c-1.25,1.17-3.02,1.14-4.18-0.01c-1.17-1.15-1.22-2.95-0.02-4.18
		c2.21-2.27,4.44-4.51,6.71-6.71c1.24-1.2,2.93-1.16,4.17,0.06c2.21,2.17,4.41,4.36,6.58,6.57c1.24,1.26,1.24,3.07,0.06,4.25
		c-1.19,1.2-3.02,1.17-4.32-0.1c-0.43-0.42-0.8-0.89-1.19-1.34c-0.07,0.06-0.15,0.12-0.22,0.18c0,8.24,0,16.48,0,24.96
		c0.54-0.54,0.96-0.96,1.38-1.37c1.32-1.28,3.11-1.34,4.33-0.15c1.22,1.19,1.21,3.01-0.08,4.32c-2.15,2.19-4.32,4.36-6.51,6.5
		c-1.28,1.25-2.97,1.28-4.25,0.03c-2.25-2.18-4.46-4.4-6.65-6.64c-1.2-1.23-1.17-3.02-0.02-4.18c1.17-1.18,2.99-1.2,4.26,0.01
		c0.44,0.42,0.8,0.92,1.2,1.38c0.08-0.05,0.16-0.1,0.24-0.14c0-8.22,0-16.45,0-24.67C6.99,11.47,6.9,11.38,6.81,11.29z"/>
	<path d="M34.84,4.1c2.68,0,5.35,0,8.03,0c1.95,0,3.33,1.27,3.31,3.01c-0.02,1.71-1.37,2.96-3.27,2.97
		c-5.42,0.01-10.83,0.01-16.25,0c-1.89,0-3.2-1.27-3.19-3.02c0.01-1.75,1.31-2.95,3.24-2.95C29.43,4.09,32.13,4.1,34.84,4.1z"/>
	<path d="M34.8,32.42c-2.81,0-5.62,0.02-8.43-0.01c-1.36-0.01-2.46-0.9-2.8-2.13c-0.36-1.31,0.15-2.7,1.32-3.35
		c0.49-0.27,1.1-0.43,1.65-0.44c5.49-0.03,10.98-0.03,16.47-0.01c1.85,0.01,3.17,1.29,3.17,2.96c0,1.72-1.34,2.96-3.25,2.97
		C40.22,32.44,37.51,32.43,34.8,32.42C34.8,32.43,34.8,32.42,34.8,32.42z"/>
	<path d="M34.88,15.31c2.68,0,5.36-0.01,8.04,0c1.91,0.01,3.26,1.24,3.26,2.95c0,1.72-1.31,2.97-3.25,2.98
		c-5.43,0.02-10.85,0.02-16.28,0c-1.92-0.01-3.21-1.27-3.19-3.02c0.02-1.75,1.31-2.91,3.27-2.92C29.45,15.3,32.17,15.31,34.88,15.31
		z"/>
	<path d="M30.4,43.63c-1.29,0-2.58,0.02-3.88,0c-1.78-0.03-3.03-1.26-3.05-2.97c-0.02-1.67,1.26-2.98,3.01-3
		c2.58-0.03,5.17-0.04,7.75,0c1.81,0.03,3.1,1.37,3.06,3.07c-0.04,1.65-1.35,2.88-3.12,2.9C32.92,43.64,31.66,43.63,30.4,43.63z"/>
</g>
</svg>
